<?xml version="1.0" encoding="UTF-8"?>
<svg xmlns="http://www.w3.org/2000/svg" xmlns:cc="http://creativecommons.org/ns#" xmlns:dc="http://purl.org/dc/elements/1.1/" xmlns:rdf="http://www.w3.org/1999/02/22-rdf-syntax-ns#" xmlns:svg="http://www.w3.org/2000/svg" xmlns:xlink="http://www.w3.org/1999/xlink" version="1.1" width="100" height="100" style="height:30pt;width:30pt;" viewBox="0 0 105 105" id="medallie2">
	<style>
		.c0 {fill:none;stroke:#000000;stroke-width:1;stroke-linecap:butt;stroke-linejoin:miter;stroke-miterlimit:4;stroke-opacity:1;stroke-dasharray:none}
	</style>

	<defs id="defs4">
		<linearGradient id="linearGradient6100">
			<stop id="stop6102" style="stop-color:#d2b85f;stop-opacity:1" offset="0" />
			<stop id="stop6104" style="stop-color:#f5e4ab;stop-opacity:1" offset="1" />
		</linearGradient>
		<linearGradient x1="383.45898" y1="458.03891" x2="364.30646" y2="335.00235" id="linearGradient2945" xlink:href="#linearGradient6100" gradientUnits="userSpaceOnUse" gradientTransform="matrix(0.81551188,0,0,0.81551188,57.372212,84.660209)" />
		<linearGradient x1="370.53293" y1="416.04031" x2="371.62866" y2="369.37131" id="linearGradient2947" xlink:href="#linearGradient6100" gradientUnits="userSpaceOnUse" gradientTransform="matrix(1.2083812,0,0,1.2083812,-75.833105,-91.044707)" />
		<linearGradient x1="370.53293" y1="416.04031" x2="371.62866" y2="369.37131" id="linearGradient2949" xlink:href="#linearGradient6100" gradientUnits="userSpaceOnUse" gradientTransform="matrix(1.2083812,0,0,1.2083812,-75.833105,-91.044707)" />
	</defs>
	<g transform="translate(-310.98053,-358.89248)" id="layer1">
		<g id="g2951">
			<path d="m 410.57277,408.89248 c 0,27.38904 -22.2032,49.59224 -49.59224,49.59224 -27.38904,0 -49.59225,-22.2032 -49.59225,-49.59224 0,-27.38904 22.20321,-49.59225 49.59225,-49.59225 27.38904,0 49.59224,22.20321 49.59224,49.59225 z" id="path3329" style="fill:url(#linearGradient2945);fill-opacity:1;stroke:#000000;stroke-width:0.81551188;stroke-miterlimit:4;stroke-opacity:1" />
			<path d="m 408.26616,408.89248 c 0,26.11513 -21.1705,47.28563 -47.28563,47.28563 -26.11513,0 -47.28563,-21.1705 -47.28563,-47.28563 0,-26.11513 21.1705,-47.28563 47.28563,-47.28563 26.11513,0 47.28563,21.1705 47.28563,47.28563 z" id="path6108" style="fill:none;stroke:#000000;stroke-width:0.81551188;stroke-miterlimit:4;stroke-opacity:1" />
			<g transform="matrix(0.81551188,0,0,0.81551188,57.372212,83.610209)" id="text3786" style="font-size:72.50286865px;font-style:normal;font-variant:normal;font-weight:normal;font-stretch:normal;line-height:125%;letter-spacing:0px;word-spacing:0px;fill:url(#linearGradient2949);fill-opacity:1;stroke:#000000;stroke-width:1.20838118;stroke-miterlimit:4;stroke-opacity:1;font-family:MalaTestaCK;-inkscape-font-specification:MalaTestaCK">
				<path d="m 362.97511,390.38377 8.91786,-15.44311 -14.57308,0 c -0.43502,-1.88504 -0.65253,-3.72178 -0.65253,-5.51022 0,-1.74003 0.21751,-3.5526 0.65253,-5.43772 l 30.66871,0 1.30505,2.03008 -10.2954,17.76321 c 3.48011,0.62838 6.18688,2.15094 8.12032,4.56768 1.93337,2.36845 2.90008,5.43773 2.90011,9.20786 -3e-5,2.9968 -0.55589,5.65523 -1.66756,7.97532 -1.06341,2.32009 -2.5618,4.2535 -4.49518,5.80023 -1.8851,1.59506 -4.13269,2.77927 -6.74277,3.55264 -2.56179,0.82169 -5.31689,1.23254 -8.26532,1.23255 -1.3534,-1e-5 -2.61012,-0.0483 -3.77015,-0.14501 -1.16006,-0.0483 -2.3201,-0.19334 -3.48014,-0.43502 -1.11172,-0.19334 -2.2476,-0.45919 -3.40764,-0.79753 -1.11171,-0.29001 -2.32009,-0.70086 -3.62514,-1.23255 0.0967,-1.7884 0.43502,-3.60097 1.01504,-5.43771 0.62836,-1.83674 1.35338,-3.48013 2.17509,-4.9302 1.83673,0.62837 3.60097,1.16006 5.29271,1.59507 1.69172,0.38668 3.48012,0.58003 5.36521,0.58002 2.85176,10e-6 5.09935,-0.58002 6.74277,-1.74007 1.69171,-1.16004 2.53757,-2.92427 2.5376,-5.29271 -3e-5,-1.01503 -0.21754,-1.90923 -0.65253,-2.68261 -0.43504,-0.77334 -1.01506,-1.4017 -1.74007,-1.88507 -0.72505,-0.53167 -1.54675,-0.91835 -2.4651,-1.16005 -0.91838,-0.28999 -1.88509,-0.43499 -2.90011,-0.43501 -0.77338,2e-5 -1.59508,0.0484 -2.4651,0.145 -0.82171,0.0484 -1.78841,0.21753 -2.90011,0.50752 l -1.59507,-2.39259" id="path4229" style="fill:url(#linearGradient2947);stroke:#000000;font-family:Aller Display;-inkscape-font-specification:Aller Display" />
			</g>
			<g transform="matrix(0.81551188,0,0,0.81551188,56.884407,84.529185)" id="g4134">
				<g transform="translate(2,-78)" id="g4123">
					<path d="m 383.4623,500.91848 c -31.58281,27.33681 -74.42901,-14.45614 -40.05639,-46.62559" id="path3954" class="c0" />
					<path d="m 335.73655,461.95796 c 5.94281,-3.2076 9.15539,-7.59833 4.90527,-15.22302 -7.80771,6.12744 -7.43528,10.85927 -4.90527,15.22302 z" id="path3958" class="c0" />
					<path d="m 335.08541,466.30339 c 0.10763,-6.75234 -2.15172,-11.70153 -10.88092,-11.72209 1.52756,9.80676 5.83732,11.79546 10.88092,11.72209 z" id="path3960" class="c0" />
					<path d="m 335.30174,465.07228 c 6.74425,0.34745 11.77059,-1.73466 12.10125,-10.45762 -9.85484,1.17821 -11.9954,5.41461 -12.10125,10.45762 z" id="path3962" class="c0" />
					<path d="m 332.37667,472.60961 c 6.74425,0.34745 11.77059,-1.73466 12.10124,-10.45762 -9.85483,1.17821 -11.99539,5.41461 -12.10124,10.45762 z" id="path3964" class="c0" />
					<path d="m 331.39125,473.6301 c 1.964,-6.46129 1.1558,-11.84145 -7.22982,-14.26645 -1.23371,9.84804 2.36125,12.94727 7.22982,14.26645 z" id="path3966" class="c0" />
					<path d="m 330.43439,480.50995 c 0.10763,-6.75234 -2.15172,-11.70153 -10.88092,-11.72209 1.52756,9.80675 5.83733,11.79546 10.88092,11.72209 z" id="path3979" class="c0" />
					<path d="m 332.91188,482.39878 c 6.32385,-2.36951 10.10375,-6.2825 6.93015,-14.41438 -8.56855,5.00856 -8.84315,9.74708 -6.93015,14.41438 z" id="path3981" class="c0" />
					<path d="m 318.31745,482.40907 c 4.25717,5.24234 9.16891,7.58201 15.86981,1.98761 -7.47298,-6.53149 -12.05293,-5.28527 -15.86981,-1.98761 z" id="path3983" class="c0" />
					<path d="m 331.9193,488.22014 c 6.73889,-0.43931 11.48895,-3.09188 10.80282,-11.7941 -9.65091,2.3164 -11.28422,6.77301 -10.80282,11.7941 z" id="path3985" class="c0" />
					<path d="m 333.21392,494.71986 c -1.35637,-6.61558 -4.63337,-10.95844 -13.1601,-9.0892 3.6139,9.24368 8.25193,10.25245 13.1601,9.0892 z" id="path3987" class="c0" />
					<path d="m 335.23812,495.92532 c 6.05676,-2.98683 9.42867,-7.25642 5.46187,-15.03228 -8.02781,5.8361 -7.82967,10.57844 -5.46187,15.03228 z" id="path3989" class="c0" />
					<path d="m 338.46662,500.87572 c -3.7852,-5.59268 -8.47488,-8.35058 -15.63687,-3.36007 6.87672,7.15658 11.54768,6.31333 15.63687,3.36007 z" id="path3991" class="c0" />
					<path d="m 341.03501,503.33679 c 5.18942,-4.32153 7.4683,-9.26176 1.79167,-15.89314 -6.4388,7.55299 -5.13616,12.11721 -1.79167,15.89314 z" id="path3993" class="c0" />
					<path d="m 343.27496,505.90465 c -4.00092,-5.44045 -8.79482,-8.01293 -15.75627,-2.74628 7.15121,6.88231 11.78565,5.85712 15.75627,2.74628 z" id="path3995" class="c0" />
					<path d="m 344.22417,508.10473 c 6.06843,-2.96309 9.45703,-7.21945 5.52072,-15.01079 -8.05061,5.80462 -7.87105,10.5477 -5.52072,15.01079 z" id="path3997" class="c0" />
					<path d="m 351.77863,508.1543 c -5.02926,-4.5069 -10.24804,-6.04428 -15.98484,0.53513 8.4079,5.27379 12.7346,3.32221 15.98484,-0.53513 z" id="path3999" class="c0" />
					<path d="m 356.72324,510.59759 c 1.82273,-6.50257 0.89746,-11.86382 -7.53903,-14.10549 -1.01879,9.87258 2.64286,12.89273 7.53903,14.10549 z" id="path4001" class="c0" />
					<path d="m 357.82536,509.3213 c -6.45347,-1.98959 -11.83678,-1.2027 -14.29498,7.17325 9.84308,1.27271 12.95652,-2.30995 14.29498,-7.17325 z" id="path4003" class="c0" />
					<path d="m 360.94943,510.81389 c 2.56437,-6.24738 2.26696,-11.67976 -5.85271,-14.88448 -2.1566,9.68787 1.13019,13.1122 5.85271,14.88448 z" id="path4005" class="c0" />
					<path d="m 363.52989,508.73474 c -6.4557,0.3527 -11.08136,2.73685 -10.705,10.67339 9.29954,-2.04297 11.00391,-6.09343 10.705,-10.67339 z" id="path4007" class="c0" />
				</g>
				<g transform="matrix(-1,0,0,1,743.77975,-78)" id="g4146">
					<path d="m 383.4623,500.91848 c -31.58281,27.33681 -74.42901,-14.45614 -40.05639,-46.62559" id="path4148" class="c0" />
					<path d="m 335.73655,461.95796 c 5.94281,-3.2076 9.15539,-7.59833 4.90527,-15.22302 -7.80771,6.12744 -7.43528,10.85927 -4.90527,15.22302 z" id="path4150" class="c0" />
					<path d="m 335.08541,466.30339 c 0.10763,-6.75234 -2.15172,-11.70153 -10.88092,-11.72209 1.52756,9.80676 5.83732,11.79546 10.88092,11.72209 z" id="path4152" class="c0" />
					<path d="m 335.30174,465.07228 c 6.74425,0.34745 11.77059,-1.73466 12.10125,-10.45762 -9.85484,1.17821 -11.9954,5.41461 -12.10125,10.45762 z" id="path4154" class="c0" />
					<path d="m 332.37667,472.60961 c 6.74425,0.34745 11.77059,-1.73466 12.10124,-10.45762 -9.85483,1.17821 -11.99539,5.41461 -12.10124,10.45762 z" id="path4156" class="c0" />
					<path d="m 331.39125,473.6301 c 1.964,-6.46129 1.1558,-11.84145 -7.22982,-14.26645 -1.23371,9.84804 2.36125,12.94727 7.22982,14.26645 z" id="path4158" class="c0" />
					<path d="m 330.43439,480.50995 c 0.10763,-6.75234 -2.15172,-11.70153 -10.88092,-11.72209 1.52756,9.80675 5.83733,11.79546 10.88092,11.72209 z" id="path4160" class="c0" />
					<path d="m 332.91188,482.39878 c 6.32385,-2.36951 10.10375,-6.2825 6.93015,-14.41438 -8.56855,5.00856 -8.84315,9.74708 -6.93015,14.41438 z" id="path4162" class="c0" />
					<path d="m 318.31745,482.40907 c 4.25717,5.24234 9.16891,7.58201 15.86981,1.98761 -7.47298,-6.53149 -12.05293,-5.28527 -15.86981,-1.98761 z" id="path4164" class="c0" />
					<path d="m 331.9193,488.22014 c 6.73889,-0.43931 11.48895,-3.09188 10.80282,-11.7941 -9.65091,2.3164 -11.28422,6.77301 -10.80282,11.7941 z" id="path4166" class="c0" />
					<path d="m 333.21392,494.71986 c -1.35637,-6.61558 -4.63337,-10.95844 -13.1601,-9.0892 3.6139,9.24368 8.25193,10.25245 13.1601,9.0892 z" id="path4168" class="c0" />
					<path d="m 335.23812,495.92532 c 6.05676,-2.98683 9.42867,-7.25642 5.46187,-15.03228 -8.02781,5.8361 -7.82967,10.57844 -5.46187,15.03228 z" id="path4170" class="c0" />
					<path d="m 338.46662,500.87572 c -3.7852,-5.59268 -8.47488,-8.35058 -15.63687,-3.36007 6.87672,7.15658 11.54768,6.31333 15.63687,3.36007 z" id="path4172" class="c0" />
					<path d="m 341.03501,503.33679 c 5.18942,-4.32153 7.4683,-9.26176 1.79167,-15.89314 -6.4388,7.55299 -5.13616,12.11721 -1.79167,15.89314 z" id="path4174" class="c0" />
					<path d="m 343.27496,505.90465 c -4.00092,-5.44045 -8.79482,-8.01293 -15.75627,-2.74628 7.15121,6.88231 11.78565,5.85712 15.75627,2.74628 z" id="path4176" class="c0" />
					<path d="m 344.22417,508.10473 c 6.06843,-2.96309 9.45703,-7.21945 5.52072,-15.01079 -8.05061,5.80462 -7.87105,10.5477 -5.52072,15.01079 z" id="path4178" class="c0" />
					<path d="m 351.77863,508.1543 c -5.02926,-4.5069 -10.24804,-6.04428 -15.98484,0.53513 8.4079,5.27379 12.7346,3.32221 15.98484,-0.53513 z" id="path4180" class="c0" />
					<path d="m 356.72324,510.59759 c 1.82273,-6.50257 0.89746,-11.86382 -7.53903,-14.10549 -1.01879,9.87258 2.64286,12.89273 7.53903,14.10549 z" id="path4182" class="c0" />
					<path d="m 357.82536,509.3213 c -6.45347,-1.98959 -11.83678,-1.2027 -14.29498,7.17325 9.84308,1.27271 12.95652,-2.30995 14.29498,-7.17325 z" id="path4184" class="c0" />
					<path d="m 360.94943,510.81389 c 2.56437,-6.24738 2.26696,-11.67976 -5.85271,-14.88448 -2.1566,9.68787 1.13019,13.1122 5.85271,14.88448 z" id="path4186" class="c0" />
					<path d="m 363.52989,508.73474 c -6.4557,0.3527 -11.08136,2.73685 -10.705,10.67339 9.29954,-2.04297 11.00391,-6.09343 10.705,-10.67339 z" id="path4188" class="c0" />
				</g>
			</g>
		</g>
	</g>
</svg>
