<?xml version="1.0" encoding="UTF-8"?>
<svg xmlns="http://www.w3.org/2000/svg" xmlns:cc="http://creativecommons.org/ns#" xmlns:dc="http://purl.org/dc/elements/1.1/" xmlns:rdf="http://www.w3.org/1999/02/22-rdf-syntax-ns#" xmlns:svg="http://www.w3.org/2000/svg" xmlns:xlink="http://www.w3.org/1999/xlink" version="1.1" width="404.31039" height="419.60187" style="height:84pt;width:87pt;" viewBox="0 0 404.31039 419.60187" id="svg2">
	<style>
		#calibre1 path {fill:none;stroke:#000000;stroke-width:1;stroke-linecap:butt;stroke-linejoin:miter;stroke-miterlimit:4;stroke-opacity:1;stroke-dasharray:none}
		.calibre2 {fill:#ffb32c;fill-opacity:0.7372549;}
		.calibre3 {fill:#ffdd55;fill-opacity:0.73559319;}
		.calibre2, .calibre3 {stroke:#FFFFFF;stroke-width:0;stroke-linecap:butt;stroke-linejoin:miter;stroke-miterlimit:4;stroke-opacity:0;stroke-dasharray:none}
	</style>
	<defs id="defs4">
		<linearGradient id="lg4101">
			<stop id="stop4103" style="stop-color:#ffffff;stop-opacity:0" offset="0" />
			<stop id="stop4105" style="stop-color:#ffffff;stop-opacity:1" offset="0.56285715" />
			<stop id="stop4107" style="stop-color:#ffffff;stop-opacity:1" offset="1" />
		</linearGradient>
		<linearGradient id="lg3855">
			<stop id="stop3857" style="stop-color:#ff0000;stop-opacity:1" offset="0" />
			<stop id="stop3859" style="stop-color:#d60000;stop-opacity:1" offset="1" />
		</linearGradient>
		<linearGradient id="lg3819">
			<stop id="stop3821" style="stop-color:#828282;stop-opacity:1" offset="0" />
			<stop id="stop3823" style="stop-color:#c8c8c8;stop-opacity:1" offset="1" />
		</linearGradient>
		<linearGradient id="lg3811">
			<stop id="stop3813" style="stop-color:#ffca17;stop-opacity:1" offset="0" />
			<stop id="stop3815" style="stop-color:#ffe650;stop-opacity:1" offset="1" />
		</linearGradient>
		<radialGradient cx="-78" cy="402.36218" r="350" fx="-78" fy="402.36218" id="rg4095" xlink:href="#lg4101" gradientUnits="userSpaceOnUse" />
		<linearGradient x1="-152.75262" y1="371.8176" x2="-240.22345" y2="257.3837" id="lg4436" xlink:href="#lg3811" gradientUnits="userSpaceOnUse" gradientTransform="translate(453.18927,33.705737)" />
		<radialGradient cx="240.5" cy="349.36218" r="9.8493176" fx="240.5" fy="349.36218" id="rg4438" xlink:href="#lg3855" gradientUnits="userSpaceOnUse" gradientTransform="translate(566.0847,162.46376)" />
		<linearGradient x1="656.49097" y1="321.07031" x2="721.73755" y2="282.13846" id="lg4440" xlink:href="#lg3811" gradientUnits="userSpaceOnUse" gradientTransform="matrix(-1,0,0,1,1196.9443,33.705737)" />
		<radialGradient cx="240.5" cy="349.36218" r="9.8493176" fx="240.5" fy="349.36218" id="rg4442" xlink:href="#lg3855" gradientUnits="userSpaceOnUse" gradientTransform="translate(-566.0847,162.46376)" />
		<linearGradient x1="374.50317" y1="587.25543" x2="374.50317" y2="561.1001" id="lg4444" xlink:href="#lg3811" gradientUnits="userSpaceOnUse" gradientTransform="translate(446,128)" />
		<linearGradient x1="-27.301859" y1="362.85153" x2="-147.36255" y2="350.16837" id="lg4446" xlink:href="#lg3811" gradientUnits="userSpaceOnUse" gradientTransform="translate(453.01249,29.705737)" />
		<linearGradient x1="325.38565" y1="330.32367" x2="325.38565" y2="306.09506" id="lg4448" xlink:href="#lg3819" gradientUnits="userSpaceOnUse" gradientTransform="translate(441.87707,128.04363)" />
		<linearGradient x1="-48.484985" y1="567.16583" x2="-138.83994" y2="589.18829" id="lg4450" xlink:href="#lg3811" gradientUnits="userSpaceOnUse" gradientTransform="translate(453.01249,29.705737)" />
		<radialGradient cx="341.1875" cy="568.67468" r="4.3125" fx="341.1875" fy="568.67468" id="rg4452" xlink:href="#lg3855" gradientUnits="userSpaceOnUse" gradientTransform="translate(446,128)" />
		<radialGradient cx="341.1875" cy="568.67468" r="4.3125" fx="341.1875" fy="568.67468" id="rg4454" xlink:href="#lg3855" gradientUnits="userSpaceOnUse" gradientTransform="translate(446,128)" />
		<radialGradient cx="341.1875" cy="568.67468" r="4.3125" fx="341.1875" fy="568.67468" id="rg4456" xlink:href="#lg3855" gradientUnits="userSpaceOnUse" gradientTransform="translate(446,128)" />
	</defs>
	<g transform="translate(-166.90835,-213.875)" id="layer1">
		 <g id="calibre0">
			 <g transform="translate(453.01249,29.705737)" id="g3939">
				 <path d="m -415,402.36218 337,0 -328.27817,-87.96187" id="path3167" class="calibre3"/>
				 <path d="M -403.517,315.14016 -78,402.36218 -372.32616,232.4329" id="path3937" class="calibre2"/>
			 </g>
			 <g transform="matrix(0.8660254,0.5,-0.5,0.8660254,643.74356,122.61205)" id="g3943">
				 <path d="m -415,402.36218 337,0 -328.27817,-87.96187" id="path3945" class="calibre3"/>
				 <path d="M -403.517,315.14016 -78,402.36218 -372.32616,232.4329" id="path3947" class="calibre2"/>
			 </g>
			 <g transform="matrix(0.5,0.8660254,-0.8660254,0.5,762.46836,298.43681)" id="g3949">
				 <path d="m -415,402.36218 337,0 -328.27817,-87.96187" id="path3951" class="calibre3"/>
				 <path d="M -403.517,315.14016 -78,402.36218 -372.32616,232.4329" id="path3953" class="calibre2"/>
			 </g>
			 <g transform="matrix(0,1,-1,0,777.37468,510.06792)" id="g3968">
				 <path d="m -415,402.36218 337,0 -328.27817,-87.96187" id="path3970" class="calibre3"/>
				 <path d="M -403.517,315.14016 -78,402.36218 -372.32616,232.4329" id="path3972" class="calibre2"/>
			 </g>
			 <g transform="matrix(-0.5,0.8660254,-0.8660254,-0.5,684.46837,700.79899)" id="g3974">
				 <path d="m -415,402.36218 337,0 -328.27817,-87.96187" id="path3976" class="calibre3"/>
				 <path d="M -403.517,315.14016 -78,402.36218 -372.32616,232.4329" id="path3978" class="calibre2"/>
			 </g>
			 <g transform="matrix(-0.8660254,0.5,-0.5,-0.8660254,508.64361,819.52379)" id="g3980">
				 <path d="m -415,402.36218 337,0 -328.27817,-87.96187" id="path3982" class="calibre3"/>
				 <path d="M -403.517,315.14016 -78,402.36218 -372.32616,232.4329" id="path3984" class="calibre2"/>
			 </g>
			 <g transform="matrix(-1,0,0,-1,297.0125,834.43011)" id="g3988">
				 <path d="m -415,402.36218 337,0 -328.27817,-87.96187" id="path3990" class="calibre3"/>
				 <path d="M -403.517,315.14016 -78,402.36218 -372.32616,232.4329" id="path3992" class="calibre2"/>
			 </g>
			 <g transform="matrix(-0.8660254,-0.5,0.5,-0.8660254,106.28143,741.5238)" id="g3994">
				 <path d="m -415,402.36218 337,0 -328.27817,-87.96187" id="path3996" class="calibre3"/>
				 <path d="M -403.517,315.14016 -78,402.36218 -372.32616,232.4329" id="path3998" class="calibre2"/>
			 </g>
			 <g transform="matrix(-0.5,-0.8660254,0.8660254,-0.5,-12.44337,565.69904)" id="g4000">
				 <path d="m -415,402.36218 337,0 -328.27817,-87.96187" id="path4002" class="calibre3"/>
				 <path d="M -403.517,315.14016 -78,402.36218 -372.32616,232.4329" id="path4004" class="calibre2"/>
			 </g>
			 <g transform="matrix(0,-1,1,0,-27.34969,354.06793)" id="g4008">
				 <path d="m -415,402.36218 337,0 -328.27817,-87.96187" id="path4010" class="calibre3"/>
				 <path d="M -403.517,315.14016 -78,402.36218 -372.32616,232.4329" id="path4012" class="calibre2"/>
			 </g>
			 <g transform="matrix(0.5,-0.8660254,0.8660254,0.5,65.556621,163.33686)" id="g4014">
				 <path d="m -415,402.36218 337,0 -328.27817,-87.96187" id="path4016" class="calibre3"/>
				 <path d="M -403.517,315.14016 -78,402.36218 -372.32616,232.4329" id="path4018" class="calibre2"/>
			 </g>
			 <g transform="matrix(0.8660254,-0.5,0.5,0.8660254,241.38138,44.61206)" id="g4020">
				 <path d="m -415,402.36218 337,0 -328.27817,-87.96187" id="path4022" class="calibre3"/>
				 <path d="M -403.517,315.14016 -78,402.36218 -372.32616,232.4329" id="path4024" class="calibre2"/>
			 </g>
		</g>
		<path d="m 262,402.36218 c 0,187.77682 -152.22319,340 -340,340 -187.77681,0 -340,-152.22318 -340,-340 0,-187.77681 152.22319,-339.999997 340,-339.999997 187.77681,0 340,152.223187 340,339.999997 z" transform="translate(453.01249,29.705737)" style="fill:url(#rg4095);fill-opacity:1;stroke:#FFFFFF;stroke-width:0;stroke-miterlimit:4;stroke-opacity:1" />
		<g transform="translate(0,-10)" id="g4356">
			<path d="m 247.59552,234.36199 c -9.41885,0 -16.89571,7.39421 -16.59559,16.09651 0.06,1.73894 -0.17171,2.76311 -1.27719,4.11927 -33.52565,41.12804 -33.60023,147.96497 29.78179,168.33416 17.98877,2.85029 35.94166,-8.13512 44.77587,-22.32875 1.10164,-1.81835 -0.59113,-6.37744 -0.59113,-6.37744 l -5.29013,5.14185 c 0,0 -24.54674,20.95723 -41.37009,9.0144 C 204.689,371.206 227.0807,280.19326 239.53434,266.97987 c 0.84562,-1.05937 1.30105,-0.86716 2.34533,-0.42438 3.37409,1.9717 7.76697,1.95346 11.95171,-0.25239 0.68546,-0.39575 1.38108,2.0183 1.70062,2.86181 8.9799,22.75397 39.46355,33.99598 59.06352,21.72833 l 0,-9.4375 c -20.4141,5.44301 -38.62131,1.5623 -49.82506,-26.32821 -0.48154,-1.19874 -1.01591,-3.11253 -1.01591,-4.26159 0,-8.88949 -6.74018,-16.50395 -16.15903,-16.50395 z" id="path3002" style="fill:url(#lg4436);fill-opacity:1;stroke:#000000;stroke-width:1;stroke-miterlimit:4;stroke-opacity:1;stroke-dasharray:none" />
			<path d="m 249.71469,349.36218 c 0,5.08914 -4.12556,9.2147 -9.21469,9.2147 -5.08913,0 -9.21469,-4.12556 -9.21469,-9.2147 0,-5.08913 4.12556,-9.21469 9.21469,-9.21469 5.08913,0 9.21469,4.12556 9.21469,9.21469 z" transform="matrix(0.78786797,0,0,0.78786797,57.941858,-24.332401)" id="path3009" style="fill:url(#rg4438);fill-opacity:1;stroke:#000000;stroke-width:1.26924825;stroke-miterlimit:4;stroke-opacity:1" />
			<path d="m 510.53804,234.36199 c 9.41885,0 16.89571,7.39421 16.59559,16.09651 -0.06,1.73894 0.17171,2.76311 1.27719,4.11927 33.52565,41.12804 33.60023,147.96497 -29.78179,168.33416 -17.98877,2.85029 -35.94166,-8.13512 -44.77587,-22.32875 -1.10164,-1.81835 0.59113,-6.37744 0.59113,-6.37744 l 5.29013,5.14185 c 0,0 24.54674,20.95723 41.37009,9.0144 52.34005,-37.15599 29.94835,-128.16873 17.49471,-141.38212 -0.84562,-1.05937 -1.30105,-0.86716 -2.34533,-0.42438 -3.37409,1.9717 -7.76697,1.95346 -11.95171,-0.25239 -0.68546,-0.39575 -1.38108,2.0183 -1.70062,2.86181 -8.9799,22.75397 -39.46355,33.99598 -59.06352,21.72833 l 0,-9.4375 c 20.4141,5.44301 38.62131,1.5623 49.82506,-26.32821 0.48154,-1.19874 1.01591,-3.11253 1.01591,-4.26159 0,-8.88949 6.74018,-16.50395 16.15903,-16.50395 z" id="path3807" style="fill:url(#lg4440);fill-opacity:1;stroke:#000000;stroke-width:1;stroke-miterlimit:4;stroke-opacity:1;stroke-dasharray:none" />
			<path d="m 249.71469,349.36218 c 0,5.08914 -4.12556,9.2147 -9.21469,9.2147 -5.08913,0 -9.21469,-4.12556 -9.21469,-9.2147 0,-5.08913 4.12556,-9.21469 9.21469,-9.21469 5.08913,0 9.21469,4.12556 9.21469,9.21469 z" transform="matrix(-0.78786797,0,0,0.78786797,700.1917,-24.332401)" id="path3809" style="fill:url(#rg4442);fill-opacity:1;stroke:#000000;stroke-width:1.26924825;stroke-miterlimit:4;stroke-opacity:1" />
			<path d="m 398.5,575.11218 c 0,6.76549 -9.73781,12.25 -21.75,12.25 -12.01219,0 -21.75,-5.48451 -21.75,-12.25 0,-6.76549 9.73781,-12.25 21.75,-12.25 12.01219,0 21.75,5.48451 21.75,12.25 z" transform="translate(2.3097329,-127.29426)" id="path3766" style="fill:url(#lg4444);fill-opacity:1;stroke:#000000;stroke-width:1;stroke-miterlimit:4;stroke-opacity:1" />
			<path d="m 314.52848,277.33247 c 1.15814,43.19534 -21.01903,86.75167 -18.1875,127.25 2.82457,40.39876 54.39591,46.40646 82.73451,46.40646 28.33859,0 79.87846,-6.008 82.70299,-46.40646 2.83153,-40.49833 -19.34564,-84.05466 -18.1875,-127.25" id="path2989" style="fill:url(#lg4446);fill-opacity:1;stroke:#000000;stroke-width:1;stroke-linecap:butt;stroke-linejoin:miter;stroke-miterlimit:4;stroke-opacity:1;stroke-dasharray:none" />
			<path d="m 387.85713,322.71933 c 0,5.52285 -28.6218,10 -63.92857,10 -35.30678,0 -63.92858,-4.47715 -63.92858,-10 0,-5.52285 28.6218,-10 63.92858,-10 35.30677,0 63.92857,4.47715 63.92857,10 z" transform="matrix(1.0093305,0,0,0.99965928,52.10876,-45.282621)" id="path2996" style="fill:url(#lg4448);fill-opacity:1;stroke:#000000;stroke-width:0.99553674;stroke-miterlimit:4;stroke-opacity:1" />
			<path d="m 379.05968,469.86199 c -10.62872,0 -19.25,3.66522 -19.25,8.15625 l -0.0312,0.3125 c -7.62325,88.7698 -33.70178,125.97074 -62.5625,143.21875 25.75026,11.805 74.73097,11.3125 81.84375,11.3125 7.11278,0 56.09349,0.4925 81.84375,-11.3125 -28.86077,-17.24801 -54.9393,-54.44895 -62.56255,-143.21875 l -0.0313,-0.3125 c 0,-4.49103 -8.62128,-8.15625 -19.25,-8.15625 z" id="path3774" style="fill:url(#lg4450);fill-opacity:1;stroke:#000000;stroke-width:1;stroke-miterlimit:4;stroke-opacity:1;stroke-dasharray:none" />
			<path d="m 389.7926,576.30255 c 0,2.75753 -1.35022,5.29778 -3.61998,7.324 -6.87942,4.27894 -18.86557,4.92412 -27.46459,0.10629 -2.34237,-2.04334 -3.74044,-4.62432 -3.74044,-7.43029 0,-2.94821 1.54341,-5.64805 4.10388,-7.73686 9.07995,1.56463 18.04073,1.81828 26.82917,0.17625 2.43347,2.0634 3.89196,4.69465 3.89196,7.56061 z" transform="translate(6.6796365,-111.22256)" id="path3772" style="fill:#ffca17;fill-opacity:1;stroke:#000000;stroke-width:1;stroke-miterlimit:4;stroke-opacity:1" />
			<g id="text3786" style="font-size:60px;font-style:normal;font-variant:normal;font-weight:normal;font-stretch:normal;line-height:125%;letter-spacing:0px;word-spacing:0px;fill:#ffb32c;stroke:#000000;stroke-width:1;stroke-miterlimit:4;stroke-opacity:1;font-family:MalaTestaCK;-inkscape-font-specification:MalaTestaCK">
				<path d="m 368.34972,371.93355 c -0.36,-0.51997 -0.72,-1.11997 -1.08,-1.8 -0.36,-0.67997 -0.7,-1.37997 -1.02,-2.1 -0.32,-0.71997 -0.6,-1.43997 -0.84,-2.16 -0.24,-0.75997 -0.42,-1.47997 -0.54,-2.16 l 17.58,-7.5 2.58,0 0,30.24 7.68,0 c 0.35997,1.56001 0.53997,3.04001 0.54,4.44 -3e-5,1.48001 -0.18003,3 -0.54,4.56 l -25.68,0 c -0.36,-1.56 -0.54,-3.07999 -0.54,-4.56 0,-1.39999 0.18,-2.87999 0.54,-4.44 l 7.8,0 0,-17.04 -6.48,2.52" id="path4466" style="stroke:#000000;font-family:Aller Display;-inkscape-font-specification:Aller Display" />
			</g>
			<path d="m 345,568.67468 c 0,2.10559 -1.70691,3.8125 -3.8125,3.8125 -2.10559,0 -3.8125,-1.70691 -3.8125,-3.8125 0,-2.10558 1.70691,-3.8125 3.8125,-3.8125 2.10559,0 3.8125,1.70692 3.8125,3.8125 z" transform="translate(37.872233,-103.79426)" id="path3869" style="fill:url(#rg4452);fill-opacity:1;stroke:#000000;stroke-width:1;stroke-miterlimit:4;stroke-opacity:1" />
			<path d="m 345,568.67468 c 0,2.10559 -1.70691,3.8125 -3.8125,3.8125 -2.10559,0 -3.8125,-1.70691 -3.8125,-3.8125 0,-2.10558 1.70691,-3.8125 3.8125,-3.8125 2.10559,0 3.8125,1.70692 3.8125,3.8125 z" transform="translate(25.872233,-103.79426)" id="path3871" style="fill:url(#rg4454);fill-opacity:1;stroke:#000000;stroke-width:1;stroke-miterlimit:4;stroke-opacity:1" />
			<path d="m 345,568.67468 c 0,2.10559 -1.70691,3.8125 -3.8125,3.8125 -2.10559,0 -3.8125,-1.70691 -3.8125,-3.8125 0,-2.10558 1.70691,-3.8125 3.8125,-3.8125 2.10559,0 3.8125,1.70692 3.8125,3.8125 z" transform="translate(49.872233,-103.79426)" id="path3873" style="fill:url(#rg4456);fill-opacity:1;stroke:#000000;stroke-width:1;stroke-miterlimit:4;stroke-opacity:1" />
			<g id="calibre1">
			<path d="M 392.47479,402.62422 C 360.89198,429.96103 318.04578,388.16808 352.4184,355.99863" id="path3954" />
			<path d="m 344.74904,363.6637 c 5.94281,-3.2076 9.15539,-7.59833 4.90527,-15.22302 -7.80771,6.12744 -7.43528,10.85927 -4.90527,15.22302 z" id="path3958" />
			<path d="m 344.0979,368.00913 c 0.10763,-6.75234 -2.15172,-11.70153 -10.88092,-11.72209 1.52756,9.80676 5.83732,11.79546 10.88092,11.72209 z" id="path3960" />
			<path d="m 344.31423,366.77802 c 6.74425,0.34745 11.77059,-1.73466 12.10125,-10.45762 -9.85484,1.17821 -11.9954,5.41461 -12.10125,10.45762 z" id="path3962" />
			<path d="m 341.38916,374.31535 c 6.74425,0.34745 11.77059,-1.73466 12.10124,-10.45762 -9.85483,1.17821 -11.99539,5.41461 -12.10124,10.45762 z" id="path3964" />
			<path d="m 340.40374,375.33584 c 1.964,-6.46129 1.1558,-11.84145 -7.22982,-14.26645 -1.23371,9.84804 2.36125,12.94727 7.22982,14.26645 z" id="path3966" />
			<path d="m 339.44688,382.21569 c 0.10763,-6.75234 -2.15172,-11.70153 -10.88092,-11.72209 1.52756,9.80675 5.83733,11.79546 10.88092,11.72209 z" id="path3979" />
			<path d="m 341.92437,384.10452 c 6.32385,-2.36951 10.10375,-6.2825 6.93015,-14.41438 -8.56855,5.00856 -8.84315,9.74708 -6.93015,14.41438 z" id="path3981" />
			<path d="m 327.32994,384.11481 c 4.25717,5.24234 9.16891,7.58201 15.86981,1.98761 -7.47298,-6.53149 -12.05293,-5.28527 -15.86981,-1.98761 z" id="path3983" />
			<path d="m 340.93179,389.92588 c 6.73889,-0.43931 11.48895,-3.09188 10.80282,-11.7941 -9.65091,2.3164 -11.28422,6.77301 -10.80282,11.7941 z" id="path3985" />
			<path d="m 342.22641,396.4256 c -1.35637,-6.61558 -4.63337,-10.95844 -13.1601,-9.0892 3.6139,9.24368 8.25193,10.25245 13.1601,9.0892 z" id="path3987" />
			<path d="m 344.25061,397.63106 c 6.05676,-2.98683 9.42867,-7.25642 5.46187,-15.03228 -8.02781,5.8361 -7.82967,10.57844 -5.46187,15.03228 z" id="path3989" />
			<path d="m 347.47911,402.58146 c -3.7852,-5.59268 -8.47488,-8.35058 -15.63687,-3.36007 6.87672,7.15658 11.54768,6.31333 15.63687,3.36007 z" id="path3991" />
			<path d="m 350.0475,405.04253 c 5.18942,-4.32153 7.4683,-9.26176 1.79167,-15.89314 -6.4388,7.55299 -5.13616,12.11721 -1.79167,15.89314 z" id="path3993" />
			<path d="m 352.28745,407.61039 c -4.00092,-5.44045 -8.79482,-8.01293 -15.75627,-2.74628 7.15121,6.88231 11.78565,5.85712 15.75627,2.74628 z" id="path3995" />
			<path d="m 353.23666,409.81047 c 6.06843,-2.96309 9.45703,-7.21945 5.52072,-15.01079 -8.05061,5.80462 -7.87105,10.5477 -5.52072,15.01079 z" id="path3997" />
			<path d="m 360.79112,409.86004 c -5.02926,-4.5069 -10.24804,-6.04428 -15.98484,0.53513 8.4079,5.27379 12.7346,3.32221 15.98484,-0.53513 z" id="path3999" />
			<path d="m 365.73573,412.30333 c 1.82273,-6.50257 0.89746,-11.86382 -7.53903,-14.10549 -1.01879,9.87258 2.64286,12.89273 7.53903,14.10549 z" id="path4001" />
			<path d="m 366.83785,411.02704 c -6.45347,-1.98959 -11.83678,-1.2027 -14.29498,7.17325 9.84308,1.27271 12.95652,-2.30995 14.29498,-7.17325 z" id="path4003" />
			<path d="m 369.96192,412.51963 c 2.56437,-6.24738 2.26696,-11.67976 -5.85271,-14.88448 -2.1566,9.68787 1.13019,13.1122 5.85271,14.88448 z" id="path4005" />
			<path d="m 372.54238,410.44048 c -6.4557,0.3527 -11.08136,2.73685 -10.705,10.67339 9.29954,-2.04297 11.00391,-6.09343 10.705,-10.67339 z" id="path4007" />
			<path d="m 367.32994,402.62422 c 31.58281,27.33681 74.42901,-14.45614 40.05639,-46.62559" id="path4148" />
			<path d="m 415.05569,363.6637 c -5.94281,-3.2076 -9.15539,-7.59833 -4.90527,-15.22302 7.80771,6.12744 7.43528,10.85927 4.90527,15.22302 z" id="path4150" />
			<path d="m 415.70683,368.00913 c -0.10763,-6.75234 2.15172,-11.70153 10.88092,-11.72209 -1.52756,9.80676 -5.83732,11.79546 -10.88092,11.72209 z" id="path4152" />
			<path d="m 415.4905,366.77802 c -6.74425,0.34745 -11.77059,-1.73466 -12.10125,-10.45762 9.85484,1.17821 11.9954,5.41461 12.10125,10.45762 z" id="path4154" />
			<path d="m 418.41557,374.31535 c -6.74425,0.34745 -11.77059,-1.73466 -12.10124,-10.45762 9.85483,1.17821 11.99539,5.41461 12.10124,10.45762 z" id="path4156" />
			<path d="m 419.40099,375.33584 c -1.964,-6.46129 -1.1558,-11.84145 7.22982,-14.26645 1.23371,9.84804 -2.36125,12.94727 -7.22982,14.26645 z" id="path4158" />
			<path d="m 420.35785,382.21569 c -0.10763,-6.75234 2.15172,-11.70153 10.88092,-11.72209 -1.52756,9.80675 -5.83733,11.79546 -10.88092,11.72209 z" id="path4160" />
			<path d="m 417.88036,384.10452 c -6.32385,-2.36951 -10.10375,-6.2825 -6.93015,-14.41438 8.56855,5.00856 8.84315,9.74708 6.93015,14.41438 z" id="path4162" />
			<path d="m 432.47479,384.11481 c -4.25717,5.24234 -9.16891,7.58201 -15.86981,1.98761 7.47298,-6.53149 12.05293,-5.28527 15.86981,-1.98761 z" id="path4164" />
			<path d="m 418.87294,389.92588 c -6.73889,-0.43931 -11.48895,-3.09188 -10.80282,-11.7941 9.65091,2.3164 11.28422,6.77301 10.80282,11.7941 z" id="path4166" />
			<path d="m 417.57832,396.4256 c 1.35637,-6.61558 4.63337,-10.95844 13.1601,-9.0892 -3.6139,9.24368 -8.25193,10.25245 -13.1601,9.0892 z" id="path4168" />
			<path d="m 415.55412,397.63106 c -6.05676,-2.98683 -9.42867,-7.25642 -5.46187,-15.03228 8.02781,5.8361 7.82967,10.57844 5.46187,15.03228 z" id="path4170" />
			<path d="m 412.32562,402.58146 c 3.7852,-5.59268 8.47488,-8.35058 15.63687,-3.36007 -6.87672,7.15658 -11.54768,6.31333 -15.63687,3.36007 z" id="path4172" />
			<path d="m 409.75723,405.04253 c -5.18942,-4.32153 -7.4683,-9.26176 -1.79167,-15.89314 6.4388,7.55299 5.13616,12.11721 1.79167,15.89314 z" id="path4174" />
			<path d="m 407.51728,407.61039 c 4.00092,-5.44045 8.79482,-8.01293 15.75627,-2.74628 -7.15121,6.88231 -11.78565,5.85712 -15.75627,2.74628 z" id="path4176" />
			<path d="m 406.56807,409.81047 c -6.06843,-2.96309 -9.45703,-7.21945 -5.52072,-15.01079 8.05061,5.80462 7.87105,10.5477 5.52072,15.01079 z" id="path4178" />
			<path d="m 399.01361,409.86004 c 5.02926,-4.5069 10.24804,-6.04428 15.98484,0.53513 -8.4079,5.27379 -12.7346,3.32221 -15.98484,-0.53513 z" id="path4180" />
			<path d="m 394.069,412.30333 c -1.82273,-6.50257 -0.89746,-11.86382 7.53903,-14.10549 1.01879,9.87258 -2.64286,12.89273 -7.53903,14.10549 z" id="path4182" />
			<path d="m 392.96688,411.02704 c 6.45347,-1.98959 11.83678,-1.2027 14.29498,7.17325 -9.84308,1.27271 -12.95652,-2.30995 -14.29498,-7.17325 z" id="path4184" />
			<path d="m 389.84281,412.51963 c -2.56437,-6.24738 -2.26696,-11.67976 5.85271,-14.88448 2.1566,9.68787 -1.13019,13.1122 -5.85271,14.88448 z" id="path4186" />
			<path d="m 387.26235,410.44048 c 6.4557,0.3527 11.08136,2.73685 10.705,10.67339 -9.29954,-2.04297 -11.00391,-6.09343 -10.705,-10.67339 z" id="path4188" />
		</g>
		</g>
	</g>
</svg>
